# xmcd
#
# Track frame offsets:
#  150
#  14560
#  26609
#  40114
#  51828
#  63612
#  76114
#  91382
#  105704
#  119934
#  133155
#  148482
#  160562
#  173856
#  185774
#  193731
#  205956
#  218840
#  232573
#  244135
#
# Disc length: 3398 seconds
#
# Revision: 0
# Processed by: cddbd v1.5.1PL2 Copyright (c) Steve Scherf et al.
# Submitted via: Collectorz.com_Music_Collector 6.9
#
DISCID=260d4414
DTITLE=Nat King Cole - The Essential Nat King Cole Vol. 1
DYEAR=2004
DGENRE=Vocal
TTITLE0=Unforgettable
TTITLE1=Walkin' My Baby Back Home
TTITLE2=What is This Thing Called Love
TTITLE3=Straighten Up and Fly
TTITLE4=Black Spider Romp
TTITLE5=Early Morning Blues
TTITLE6=Embraceable You
TTITLE7=Faith Can Move Mountains
TTITLE8=Frim Fram Sauce
TTITLE9=Gee Baby, Ain't I Good To You
TTITLE10=All For You
TTITLE11=Gone With The Draft
TTITLE12=Hit That Jive Jack
TTITLE13=Jivin' With Jarvis
TTITLE14=Just You, Just Me
TTITLE15=Laura
TTITLE16=On The Sunny Side Of The Street
TTITLE17=Polka Dots and Moonbeams
TTITLE18=Scotchin' With Soda
TTITLE19=Orange Coloured Sky
EXTD=
EXTT0=
EXTT1=
EXTT2=
EXTT3=
EXTT4=
EXTT5=
EXTT6=
EXTT7=
EXTT8=
EXTT9=
EXTT10=
EXTT11=
EXTT12=
EXTT13=
EXTT14=
EXTT15=
EXTT16=
EXTT17=
EXTT18=
EXTT19=
PLAYORDER=
